<svg xmlns="http://www.w3.org/2000/svg" xmlns:xlink="http://www.w3.org/1999/xlink" width="385" height="95" viewBox="0 0 385 95">
  <defs>
    <clipPath id="clip-path">
      <rect id="長方形_10" data-name="長方形 10" width="385" height="95" transform="translate(-566 253)" fill="none" stroke="#707070" stroke-width="1"/>
    </clipPath>
    <clipPath id="clip-path-2">
      <rect id="長方形_1" data-name="長方形 1" width="550.024" height="255.118"/>
    </clipPath>
  </defs>
  <g id="マスクグループ_1" data-name="マスクグループ 1" transform="translate(566 -253)" clip-path="url(#clip-path)">
    <g id="グループ_1" data-name="グループ 1" transform="translate(-651 172)" clip-path="url(#clip-path-2)">
      <path id="パス_1" data-name="パス 1" d="M203.5,98.314a15.218,15.218,0,0,0-10.74-10.741c-9.474-2.538-47.464-2.538-47.464-2.538s-37.989,0-47.463,2.538A15.219,15.219,0,0,0,87.088,98.314c-2.538,9.474-2.538,29.241-2.538,29.241s0,19.766,2.538,29.24a15.216,15.216,0,0,0,10.741,10.74c9.474,2.539,47.463,2.539,47.463,2.539s37.99,0,47.464-2.539a15.216,15.216,0,0,0,10.74-10.74c2.539-9.475,2.539-29.24,2.539-29.24s0-19.766-2.539-29.241" fill="#ee3123"/>
    </g>
    <g id="グループ_2" data-name="グループ 2" transform="translate(-651 172)" clip-path="url(#clip-path-2)">
      <path id="パス_2" data-name="パス 2" d="M133.144,145.777l31.561-18.221-31.561-18.223Z" fill="#fff"/>
    </g>
    <g id="グループ_3" data-name="グループ 3" transform="translate(-651 172)" clip-path="url(#clip-path-2)">
      <path id="パス_3" data-name="パス 3" d="M260.885,162.4a13.238,13.238,0,0,1-5.126-7.559,49.468,49.468,0,0,1-1.52-13.639v-7.732a44.829,44.829,0,0,1,1.737-13.814,13.856,13.856,0,0,1,5.43-7.6,17.578,17.578,0,0,1,9.687-2.389q5.907,0,9.469,2.432a13.948,13.948,0,0,1,5.212,7.6,46.617,46.617,0,0,1,1.651,13.77V141.2a47.4,47.4,0,0,1-1.607,13.683,13.433,13.433,0,0,1-5.212,7.558q-3.606,2.391-9.774,2.39-6.342,0-9.947-2.433m13.466-8.341q1-2.605,1-8.514V128.955a25.65,25.65,0,0,0-1-8.384,3.577,3.577,0,0,0-3.519-2.65,3.525,3.525,0,0,0-3.432,2.65,25.662,25.662,0,0,0-1,8.384v16.593q0,5.908.955,8.514a3.493,3.493,0,0,0,3.475,2.606,3.566,3.566,0,0,0,3.519-2.606" fill="#fff"/>
    </g>
    <g id="グループ_4" data-name="グループ 4" transform="translate(-651 172)" clip-path="url(#clip-path-2)">
      <path id="パス_4" data-name="パス 4" d="M445.406,141.332v2.693a70.767,70.767,0,0,0,.3,7.688,7.282,7.282,0,0,0,1.26,3.735,3.586,3.586,0,0,0,2.953,1.175,3.72,3.72,0,0,0,3.692-2.086q1-2.087,1.086-6.951l10.339.608a16.268,16.268,0,0,1,.087,1.911q0,7.386-4.04,11.033t-11.425,3.65q-8.861,0-12.424-5.562t-3.562-17.2v-9.3q0-11.988,3.692-17.5t12.641-5.517q6.168,0,9.471,2.259A12.13,12.13,0,0,1,464.127,119a50.852,50.852,0,0,1,1.347,13.206v9.122H445.406Zm1.52-22.415a7.346,7.346,0,0,0-1.216,3.692,71.919,71.919,0,0,0-.3,7.776v3.823h8.773v-3.823a64.558,64.558,0,0,0-.347-7.776,7.435,7.435,0,0,0-1.26-3.735,3.483,3.483,0,0,0-2.824-1.086,3.417,3.417,0,0,0-2.822,1.129" fill="#fff"/>
    </g>
    <g id="グループ_5" data-name="グループ 5" transform="translate(-651 172)" clip-path="url(#clip-path-2)">
      <path id="パス_5" data-name="パス 5" d="M231.691,140.335l-13.64-49.259h11.9l4.779,22.327q1.824,8.254,2.692,14.074h.348q.607-4.17,2.693-13.987l4.952-22.414h11.9l-13.814,49.259v23.632H231.691V140.335Z" fill="#fff"/>
    </g>
    <g id="グループ_6" data-name="グループ 6" transform="translate(-651 172)" clip-path="url(#clip-path-2)">
      <path id="パス_6" data-name="パス 6" d="M326.136,110.711v53.256h-9.383l-1.043-6.517h-.261q-3.822,7.386-11.467,7.385-5.3,0-7.819-3.475t-2.52-10.86V110.711h11.989v39.1a11.951,11.951,0,0,0,.781,5.082,2.7,2.7,0,0,0,2.606,1.521,5.3,5.3,0,0,0,3-.956,5.915,5.915,0,0,0,2.129-2.432v-42.31h11.991Z" fill="#fff"/>
    </g>
    <g id="グループ_7" data-name="グループ 7" transform="translate(-651 172)" clip-path="url(#clip-path-2)">
      <path id="パス_7" data-name="パス 7" d="M387.632,110.711v53.256h-9.383l-1.043-6.517h-.261q-3.824,7.386-11.467,7.385-5.3,0-7.819-3.475t-2.52-10.86V110.711h11.988v39.1a11.932,11.932,0,0,0,.782,5.082,2.7,2.7,0,0,0,2.607,1.521,5.3,5.3,0,0,0,3-.956,5.932,5.932,0,0,0,2.13-2.432v-42.31h11.99Z" fill="#fff"/>
    </g>
    <g id="グループ_8" data-name="グループ 8" transform="translate(-651 172)" clip-path="url(#clip-path-2)">
      <path id="パス_8" data-name="パス 8" d="M358.714,100.72h-11.9v63.248H335.083V100.72h-11.9V91.076h35.532Z" fill="#fff"/>
    </g>
    <g id="グループ_9" data-name="グループ 9" transform="translate(-651 172)" clip-path="url(#clip-path-2)">
      <path id="パス_9" data-name="パス 9" d="M427.311,119.224q-1.086-5.037-3.518-7.3a9.458,9.458,0,0,0-6.69-2.259,11.089,11.089,0,0,0-6.168,1.868,12.685,12.685,0,0,0-4.43,4.909h-.089l0-28.062H394.862v75.583h9.9l1.217-5.039h.261a10.162,10.162,0,0,0,4.171,4.258,12.359,12.359,0,0,0,6.168,1.562,9.438,9.438,0,0,0,8.947-5.6q2.867-5.6,2.867-17.506v-8.427a70.012,70.012,0,0,0-1.085-13.987M416.32,140.947a67.388,67.388,0,0,1-.478,9.122,9.86,9.86,0,0,1-1.607,4.691,3.715,3.715,0,0,1-3.04,1.39,5.549,5.549,0,0,1-2.736-.7,5.216,5.216,0,0,1-2.041-2.085V123.137a7.554,7.554,0,0,1,2.085-3.562,4.609,4.609,0,0,1,3.214-1.39,3.24,3.24,0,0,1,2.823,1.434,11.025,11.025,0,0,1,1.39,4.822,89.856,89.856,0,0,1,.391,9.643v6.863Z" fill="#fff"/>
    </g>
  </g>
</svg>
